<svg xmlns="http://www.w3.org/2000/svg" viewBox="0 0 32 32" fill="none">
  <rect width="32" height="32" rx="6" fill="#0a1a2e"/>
  <!-- Elongated hex badge inspired by Tenz wordmark -->
  <path
    fill="#2091D0"
    d="M6 10.5c0-.8.4-1.5 1.1-1.9l8-4.6a2 2 0 0 1 2 0l8 4.6c.7.4 1.1 1.1 1.1 1.9v11c0 .8-.4 1.5-1.1 1.9l-8 4.6a2 2 0 0 1-2 0l-8-4.6A2.2 2.2 0 0 1 6 21.5v-11Z"
  />
  <path
    fill="#fff"
    d="M11.2 20.2V11.8h2.1l2.4 5.1c.2.4.3.7.4 1h.1c0-.3.2-.7.4-1.1l2.3-5h2.1v8.4h-1.6v-4.9c0-.5 0-1.2.1-1.9h-.1l-.9 2.1-2.1 4.7h-1.2l-2.1-4.7-.9-2.1h-.1c0 .7.1 1.4.1 1.9v4.9h-1.5Z"
  />
</svg>
