<svg width="600" height="400" viewBox="0 0 600 400" fill="none" xmlns="http://www.w3.org/2000/svg">
  <defs>
    <linearGradient id="g" x1="0" y1="0" x2="1" y2="1">
      <stop offset="0%" stop-color="#4F46E5" />
      <stop offset="100%" stop-color="#0EA5E9" />
    </linearGradient>
  </defs>
  <rect width="600" height="400" rx="36" fill="#0F172A" />
  <path d="M160 240c0 44.182 35.818 80 80 80s80-35.818 80-80-35.818-80-80-80-80 35.818-80 80Z" fill="url(#g)" opacity="0.65" />
  <path d="M320 230c0 50-40 90-90 90s-90-40-90-90 40-90 90-90 90 40 90 90Z" stroke="#fff" stroke-width="12" opacity="0.85" />
  <path d="M320 230c0 50-40 90-90 90s-90-40-90-90 40-90 90-90 90 40 90 90Z" stroke="#fff" stroke-width="6" stroke-dasharray="12 12" opacity="0.7" />
  <text x="50%" y="58%" text-anchor="middle" fill="#E2E8F0" font-family="ui-sans-serif, system-ui, -apple-system, BlinkMacSystemFont, 'Segoe UI', sans-serif" font-size="28" font-weight="600">Solvari</text>
  <text x="50%" y="70%" text-anchor="middle" fill="#94A3B8" font-family="ui-sans-serif, system-ui, -apple-system, BlinkMacSystemFont, 'Segoe UI', sans-serif" font-size="18">Service preview</text>
</svg>
